<svg width="17" height="17" viewBox="0 0 17 17" fill="none" xmlns="http://www.w3.org/2000/svg">
<path opacity="0.5" fill-rule="evenodd" clip-rule="evenodd" d="M2.5 15C2.5 14.7239 2.72386 14.5 3 14.5H13.6667C13.9428 14.5 14.1667 14.7239 14.1667 15C14.1667 15.2761 13.9428 15.5 13.6667 15.5H3C2.72386 15.5 2.5 15.2761 2.5 15Z" fill="#fff"/>
<path opacity="0.5" d="M13.0536 5.24771C13.8728 4.42849 13.8728 3.10026 13.0536 2.28104C12.2344 1.46182 10.9062 1.46182 10.087 2.28104L9.61377 2.75423C9.62025 2.7738 9.62697 2.79364 9.63394 2.81373C9.80738 3.31365 10.1346 3.969 10.7502 4.58461C11.3658 5.20022 12.0212 5.52747 12.5211 5.70091C12.5411 5.70785 12.5609 5.71454 12.5803 5.72099L13.0536 5.24771Z" fill="#fff"/>
<path d="M9.6339 2.73303L9.61353 2.75341C9.62001 2.77297 9.62673 2.79281 9.6337 2.81291C9.80714 3.31283 10.1344 3.96817 10.75 4.58378C11.3656 5.19939 12.021 5.52664 12.5209 5.70008C12.5407 5.70696 12.5603 5.7136 12.5796 5.72L8.01302 10.2866C7.70516 10.5944 7.55119 10.7484 7.38145 10.8808C7.18122 11.037 6.96458 11.1709 6.73534 11.2801C6.54102 11.3727 6.33448 11.4416 5.92141 11.5793L3.74315 12.3053C3.53987 12.3731 3.31576 12.3202 3.16424 12.1687C3.01273 12.0172 2.95982 11.7931 3.02758 11.5898L3.75367 9.41152C3.89136 8.99845 3.9602 8.79191 4.05282 8.59759C4.16206 8.36836 4.29596 8.15171 4.45213 7.95148C4.58452 7.78175 4.73846 7.6278 5.04631 7.31995L9.6339 2.73303Z" fill="#fff"/>
</svg>
