<svg width="17" height="17" viewBox="0 0 17 17" fill="none" xmlns="http://www.w3.org/2000/svg">
<path d="M8.25065 3.53301C8.82426 3.39874 9.41154 3.33162 10.0007 3.33301C15.834 3.33301 19.1673 9.99967 19.1673 9.99967C18.6615 10.946 18.0582 11.837 17.3673 12.658M11.7673 11.7663C11.5384 12.012 11.2624 12.209 10.9558 12.3456C10.6491 12.4822 10.3181 12.5557 9.98239 12.5616C9.64672 12.5676 9.31329 12.5058 9.00199 12.3801C8.6907 12.2543 8.40792 12.0672 8.17052 11.8298C7.93313 11.5924 7.74598 11.3096 7.62024 10.9983C7.4945 10.687 7.43276 10.3536 7.43868 10.0179C7.4446 9.68226 7.51807 9.35121 7.65471 9.04455C7.79135 8.73788 7.98836 8.46188 8.23398 8.23301M0.833984 0.833008L19.1673 19.1663M14.9507 14.9497C13.5261 16.0355 11.7916 16.6371 10.0007 16.6663C4.16732 16.6663 0.833984 9.99967 0.833984 9.99967C1.87056 8.06792 3.30826 6.38018 5.05065 5.04967L14.9507 14.9497Z" stroke="#D0D5DD" stroke-width="1.66667" stroke-linecap="round" stroke-linejoin="round"/>
</svg>
