<svg width="512" height="512" viewBox="0 0 512 512" fill="none" xmlns="http://www.w3.org/2000/svg">
<path opacity="0.490196" d="M486.4 68H25.6C11.483 68 0 79.483 0 93.6V417.867C0 431.984 11.483 443.467 25.6 443.467H486.4C500.517 443.467 512 431.984 512 417.867V93.6C512 79.483 500.517 68 486.4 68ZM25.6 426.4C20.896 426.4 17.067 422.571 17.067 417.867V312.004L96.438 232.629C99.646 229.379 105.113 229.337 108.405 232.671L192.748 316.936L83.251 426.4H25.6ZM494.933 417.866C494.933 422.57 491.104 426.399 486.4 426.399H107.388L360.971 172.895C364.179 169.645 369.65 169.603 372.934 172.937L494.934 294.855L494.933 417.866ZM494.933 270.723L385.037 160.904C375.362 151.112 358.466 151.154 348.866 160.862L204.816 304.871L120.505 220.638C110.83 210.846 93.934 210.884 84.334 220.601L17.067 287.871V93.6C17.067 88.896 20.896 85.067 25.6 85.067H486.4C491.104 85.067 494.933 88.896 494.933 93.6V270.723Z" fill="black"/>
<path opacity="0.490196" d="M213.333 127.733C185.1 127.733 162.133 150.7 162.133 178.933C162.133 207.166 185.1 230.133 213.333 230.133C241.566 230.133 264.533 207.166 264.533 178.933C264.533 150.7 241.567 127.733 213.333 127.733ZM213.333 213.066C194.512 213.066 179.2 197.753 179.2 178.933C179.2 160.113 194.512 144.8 213.333 144.8C232.154 144.8 247.466 160.113 247.466 178.933C247.466 197.753 232.154 213.066 213.333 213.066Z" fill="black"/>
</svg>
