<svg width="512" height="512" viewBox="0 0 512 512" fill="none" xmlns="http://www.w3.org/2000/svg">
<path d="M256 69C219.015 69 182.86 79.9674 152.108 100.515C121.356 121.063 97.3882 150.268 83.2346 184.438C69.081 218.608 65.3778 256.207 72.5932 292.482C79.8087 328.756 97.6187 362.077 123.771 388.229C149.924 414.381 183.244 432.191 219.518 439.407C255.793 446.622 293.392 442.919 327.562 428.765C361.732 414.612 390.937 390.644 411.485 359.892C432.033 329.14 443 292.985 443 256C442.947 206.421 423.228 158.887 388.171 123.83C353.113 88.7717 305.579 69.0529 256 69ZM256 429C221.784 429 188.336 418.854 159.886 399.844C131.437 380.835 109.263 353.816 96.1689 322.204C83.075 290.593 79.649 255.808 86.3242 222.249C92.9995 188.691 109.476 157.865 133.671 133.671C157.865 109.476 188.691 92.9994 222.249 86.3242C255.808 79.6489 290.593 83.0749 322.204 96.1688C353.816 109.263 380.835 131.437 399.844 159.886C418.854 188.336 429 221.784 429 256C428.947 301.866 410.703 345.839 378.271 378.271C345.839 410.703 301.866 428.947 256 429Z" fill="#878787"/>
<path d="M328.762 239.3L230.762 179.264C227.793 177.45 224.394 176.46 220.915 176.394C217.437 176.328 214.003 177.19 210.968 178.89C207.932 180.59 205.404 183.068 203.643 186.069C201.881 189.069 200.951 192.484 200.946 195.964V316.036C200.92 319.52 201.835 322.946 203.596 325.953C205.356 328.96 207.895 331.436 210.946 333.12C213.977 334.842 217.417 335.715 220.903 335.644C224.389 335.574 227.791 334.563 230.75 332.72L328.75 272.684C331.604 270.93 333.961 268.474 335.596 265.551C337.231 262.627 338.09 259.333 338.09 255.984C338.09 252.634 337.231 249.34 335.596 246.416C333.961 243.493 331.604 241.037 328.75 239.284L328.762 239.3ZM321.45 260.76L223.442 320.8C222.595 321.313 221.626 321.593 220.636 321.611C219.645 321.628 218.667 321.382 217.803 320.898C216.938 320.414 216.217 319.709 215.714 318.856C215.211 318.002 214.943 317.03 214.938 316.04V195.964C214.927 194.969 215.187 193.99 215.69 193.131C216.193 192.273 216.92 191.568 217.794 191.092C218.639 190.619 219.59 190.368 220.558 190.36C221.579 190.367 222.578 190.659 223.442 191.204L321.442 251.24C322.252 251.742 322.921 252.443 323.385 253.276C323.848 254.109 324.092 255.046 324.092 256C324.092 256.953 323.848 257.891 323.385 258.724C322.921 259.557 322.252 260.257 321.442 260.76H321.45Z" fill="#878787"/>
</svg>
