<svg width="17" height="17" viewBox="0 0 17 17" fill="none" xmlns="http://www.w3.org/2000/svg">
<path d="M2.33325 4.59061C2.33325 4.26764 2.56351 4.00582 2.84754 4.00582L4.6237 4.0055C4.9766 3.99533 5.28793 3.74018 5.40801 3.3627C5.41117 3.35278 5.4148 3.34054 5.42782 3.29612L5.50435 3.035C5.55119 2.8749 5.59199 2.73542 5.64908 2.61074C5.87464 2.1182 6.29197 1.77617 6.77423 1.6886C6.8963 1.66644 7.02557 1.66653 7.17396 1.66664H9.49266C9.64105 1.66653 9.77032 1.66644 9.89239 1.6886C10.3747 1.77617 10.792 2.1182 11.0175 2.61074C11.0746 2.73542 11.1154 2.8749 11.1623 3.035L11.2388 3.29612C11.2518 3.34054 11.2555 3.35278 11.2586 3.3627C11.3787 3.74018 11.7518 3.99565 12.1047 4.00582H13.819C14.103 4.00582 14.3333 4.26764 14.3333 4.59061C14.3333 4.91358 14.103 5.1754 13.819 5.1754H2.84754C2.56351 5.1754 2.33325 4.91358 2.33325 4.59061Z" fill="#F04438"/>
<path fill-rule="evenodd" clip-rule="evenodd" d="M8.06365 15H8.60285C10.458 15 11.3856 15 11.9887 14.4094C12.5918 13.8188 12.6535 12.85 12.7769 10.9124L12.9547 8.12045C13.0216 7.06912 13.0551 6.54345 12.7526 6.21035C12.45 5.87724 11.9391 5.87724 10.9172 5.87724H5.74928C4.72743 5.87724 4.21651 5.87724 3.91395 6.21035C3.6114 6.54345 3.64488 7.06912 3.71184 8.12045L3.88965 10.9124C4.01305 12.85 4.07475 13.8188 4.67784 14.4094C5.28094 15 6.20851 15 8.06365 15ZM7.1641 8.45903C7.13663 8.1698 6.89161 7.95877 6.61683 7.9877C6.34206 8.01662 6.14159 8.27454 6.16907 8.56377L6.5024 12.0725C6.52988 12.3618 6.7749 12.5728 7.04967 12.5439C7.32444 12.515 7.52491 12.257 7.49744 11.9678L7.1641 8.45903ZM10.0497 7.9877C10.3244 8.01662 10.5249 8.27454 10.4974 8.56377L10.1641 12.0725C10.1366 12.3618 9.89161 12.5728 9.61683 12.5439C9.34206 12.515 9.14159 12.257 9.16907 11.9678L9.5024 8.45903C9.52988 8.1698 9.7749 7.95877 10.0497 7.9877Z" fill="#F04438"/>
</svg>
